<svg width="33" height="66" fill="none" xmlns="http://www.w3.org/2000/svg"><path d="M13.911 59.2c.249-1.006.155-2.86.155-2.86l4.482-2.01s-.41 1.222-.31 2.01c.087.672.488.957.62 1.623.152.77-.18 1.245 0 2.009.125.54.54 1.314.54 1.314s.62-.144.928-.387c.435-.343.492-.72.695-1.236.541-1.376-.154-3.787 0-3.787.155 0 4.019 2.628 4.019 2.628s-.519 1.146-.618 1.932c-.153 1.205.028 2.023-.773 3.091-.332.276-1.005.464-1.005.464S20.48 66 20.558 65.459c0-.695.154-1.777.154-1.777s-4.637 2.163-4.637 1.777c-.155-.618.541-1.468.541-1.468s-1.623 1.004-1.468.54c.108-.323.316-.68.508-.97a.484.484 0 01-.277.12c-.543.025-.463-1.313-.463-1.313s-2.55 1.623-3.71 1.623c-.265-.512-.154-1.469-.154-1.469s-1.855.619-2.705.541c.154-1.004.882-1.281 1.623-1.932 1.287-1.131 3.168-1.545 3.94-1.931zM1.005.387c-.243.1-.536.287-.743.43a.147.147 0 00.052.265c.263.065.64.159.923.232 1.396.36 2.206.493 3.555 1.005 1.678.636 2.649 1.024 4.096 2.086.672.494 1.078.759 1.623 1.391l.006.008c.798.927 1.338 1.556 1.462 2.775.034.33 0 .85 0 .85s.815.503 1.391.695c1.546.541 7.187-1.777 7.187-4.25-.618-1.932-1.831-3.637-4.018-4.56A5.98 5.98 0 0014.916.85c-.835-.131-1.32-.047-2.164 0-1.279.072-1.966.498-3.246.464-.977-.026-1.51-.223-2.473-.386C5.457.66 4.613.132 3.014.155c-.79.011-1.28-.07-2.01.232z" fill="#0A5D69"/><path d="M16.307 9.351c-1.016.442-2.673.71-3.025.763-.026.004-.034.037-.014.055l1.493 1.269 2.86 2.164s1.967 1.718 2.705 3.168c.35.69.435 1.127.695 1.855.648 1.817 1.469 4.715 1.469 4.715s.563 2.015 1.313 3.09c.44.632.81.887 1.314 1.47.842.972 1.509 1.4 2.087 2.55.731 1.454.447 2.329.773 4.096.428 2.325 1.314 6.337 1.314 6.337v1.16c0 1.478.156 2.315 0 3.786-.154 1.442-.773 3.632-.773 3.632l-1.715 5.501c-.017.054.056.085.083.036.328-.614.943-1.78 1.323-2.6.54-1.468.698-2.889 1.236-4.714.231-.784.593-1.914.724-2.32a.045.045 0 01.088.003l1.197 4.713s.619 1.7 1.237 1.777c.377-.315.232-1.236.232-1.236s-.734-2.29-1.082-3.787c-.347-1.494-.396-2.36-.696-3.864-.144-.726-.263-1.126-.386-1.855-.077-1.469-.15-3.91-.232-6.415-.066-1.992.13-3.128-.155-5.1-.15-1.037-.285-1.612-.54-2.628-.499-1.98-.932-3.054-1.7-4.946-.676-1.664-1.238-2.517-1.933-4.174-.55-1.312-.692-2.12-1.314-3.4-.71-1.462-1.378-2.132-2.164-3.555-.541-.98-.877-1.518-1.313-2.55-.353-.834-.748-2.132-.834-2.417a.03.03 0 00-.053-.01c-.182.228-1.005 1.242-1.664 1.808-.895.77-1.467 1.153-2.55 1.623z" fill="#0A5D69"/><path d="M5.874 34.005c.37-1.452 1.236-3.633 1.236-3.633l2.705 16.23s-.464 2.164-1.855 1.777c-.85-.386-1.777-1.082-2.24-2.009-.375-.688-.39-1.163-.542-1.932-.241-1.217-.226-1.928-.232-3.169-.006-1.501.107-2.35.305-3.827l.004-.037c.179-1.338.285-2.093.619-3.4z" fill="#0A5D69" stroke="#0A5D69" stroke-width=".155"/><path d="M12.785 10.246h0c.477.477.787.742 1.165 1.066.125.106.257.22.405.348.558.487 1.06.789 1.514 1.062L16 12.8c.485.293.929.578 1.42 1.075 1.745 1.77 2.724 2.864 3.351 5.115.77 2.762 1.834 6.178 3.549 8.652l.025.037.032.032c.203.203.43.414.656.626l.056.052c.248.232.5.468.74.711.487.492.906.987 1.16 1.495.804 1.61 1.801 5.777 1.801 10.055 0 .795.048 1.44.094 2.046l.02.27c.049.682.085 1.347.043 2.197-.381 2.732-.913 4.785-1.755 7.542-.798 2.262-1.71 4.037-2.585 5.65a9.374 9.374 0 01-1.63-.399 9.072 9.072 0 01-.759-.29 4.114 4.114 0 01-.305-.15 3.804 3.804 0 01-.05-.265l-.005-.032a8.524 8.524 0 00-.04-.244c-.066-.356-.213-.97-.816-1.243a2.688 2.688 0 00-.7-.201c-.114-.02-.264-.043-.418-.067-.135-.02-.272-.041-.389-.061-.573-.097-1.204-.243-1.824-.579a.935.935 0 00-1.086.136 9.482 9.482 0 01-1.143.928c-.376.253-.71.415-.966.47-.066-.09-.102-.204-.134-.377-.009-.044-.017-.094-.026-.15-.04-.251-.097-.612-.267-.952a7.947 7.947 0 00-.852-1.344l-.216-.28c-.215-.276-.428-.55-.663-.903-.261-.392-.491-.71-.7-1.001-.442-.61-.796-1.102-1.18-1.913-.365-1.254-.517-2.431-.633-3.697a111 111 0 01-.086-1.008 52.04 52.04 0 00-.336-3.226 356.76 356.76 0 00-1.079-6.975 322.745 322.745 0 01-.697-4.448c-.164-2.094-.25-3.263-.229-5.35.004-.416.005-.808.006-1.18.003-1.9.006-3.306.444-5.121h0l.001-.006c.586-2.566 1.27-3.975 2.564-6.259a39.1 39.1 0 00.439-.645c.224-.334.44-.657.662-.95.178-.233.336-.411.47-.527.12-.103.175-.117.177-.118a.733.733 0 01.404.098.823.823 0 01.17.147c.02.021.042.045.07.072zm.353-.354h0z" fill="#fff" stroke="#0A5D69"/></svg>